<svg width="256" height="256" viewBox="0 0 256 256" fill="none" xmlns="http://www.w3.org/2000/svg">
<g clip-path="url(#clip0_1_2)">
<rect width="256" height="256" rx="29" fill="#5DA370"/>
<path d="M29.32 162V100.176H56.968C63.304 100.176 68.712 101.232 73.192 103.344C77.672 105.392 81.096 108.72 83.464 113.328C85.832 117.872 87.016 123.92 87.016 131.472C87.016 142.096 84.424 149.84 79.24 154.704C74.056 159.568 66.632 162 56.968 162H29.32ZM47.368 148.176H54.664C57.672 148.176 60.2 147.76 62.248 146.928C64.296 146.032 65.864 144.4 66.952 142.032C68.04 139.6 68.584 136.08 68.584 131.472C68.584 126.864 68.072 123.312 67.048 120.816C66.088 118.256 64.584 116.496 62.536 115.536C60.488 114.512 57.864 114 54.664 114H47.368V148.176ZM100.443 162L86.0425 100.176H103.707L110.715 132.912L117.531 109.488V100.176H132.315L141.723 133.008L149.115 100.176H166.779L152.475 162H136.155L126.843 130.032L116.763 162H100.443ZM160.529 162L184.241 100.176H203.345L227.057 162H208.241L203.057 148.848H184.433L179.345 162H160.529ZM186.833 135.888H200.657L193.745 117.744L186.833 135.888Z" fill="white"/>
</g>
<defs>
<clipPath id="clip0_1_2">
<rect width="256" height="256" fill="white"/>
</clipPath>
</defs>
</svg>
